<svg xmlns="http://www.w3.org/2000/svg" xmlns:xlink="http://www.w3.org/1999/xlink" id="Layer_1" x="0px" y="0px" viewBox="0 0 289.1 271.9" xml:space="preserve"><g>	<path fill="#FFFFFF" d="M228,184.4v75.8c0,0-15.3,3.1-41.6,3.1s-57.2-4.3-75.8-14c-18.6-9.6-30.9-18.2-39.8-36  c-9.6-19.3-8.7-27.8-8.7-27.8s24.7,2.1,40.2-4s18.8-14.8,18.8-14.8l23.9,26.6l22-23.3c0,0,7.2,12,27.1,14.1  C211.5,186,228,184.4,228,184.4z"></path>	<path fill="#FFFFFF" d="M274.1,78.6c-5.8-0.5-12.1-1.1-22.5-2.1c-10.4-1.1-32-1.5-51.6,1.1c-19.6,2.6-39.3,6.8-46.9,8.4  c-7.6,1.5-8.2,2.4-22.1-0.2c-13.9-2.6-25.9-6.7-47.6-8.7s-39.4-1.6-57.3,0C8.1,78.6,5.8,79.5,5.8,80.8v24c0,0,4,0.6,6.5,2.8  s2.9,5.4,4.9,15.2s4.2,30.8,15.3,40.6s25.5,15.6,47.3,14.1c21.8-1.5,32.2-10.4,39.8-20.9c7.5-10.6,10.4-23.5,12.1-32.7  s6.9-13.6,11.6-13.6s8.6,4,11.3,16.5c2.7,12.5,6.2,27.9,20.1,38.8c13.9,10.9,28.4,14.4,49.8,11.1c21.4-3.3,32.6-13.1,38-27.2  c5.4-14.1,7.5-36.1,9.9-40.4c2.4-4.2,8.1-4,8.1-4V81.5C280.5,81.5,279.9,79.1,274.1,78.6z M104.9,157.8c-10,7.6-26.7,8.5-42.8,6.6  c-16.1-1.9-22.9-6.6-27.2-18.5c-4.2-11.9-4.5-29.8-4.1-36.4c0.6-11.4,10.2-15.9,22.7-17.1s37.6-1.5,51.2,1.6  c13.5,3.2,15.9,12.3,15.9,23.2C120.6,129.2,114.9,150.1,104.9,157.8z M254.8,122.1c0,11.6-1.8,22-7.2,30.2  c-5.4,8.2-14.8,12.4-34.6,12.9c-19.8,0.5-32.5-4.6-38.7-15c-6.2-10.4-8.6-28.1-8.7-36.2c0-2.3,0.5-11.9,8-16.6  c9.1-5.7,25.9-5.8,42.2-5.8c16.4,0,21.9,0.4,31.2,5.1S254.8,110.5,254.8,122.1z"></path>	<path fill="#FFFFFF" d="M62.4,4.3c0,0-12.7,15.5-15,32.6s2.5,32.3,2.5,32.3s15.7-2.5,47.3,1.9c31.4,4.5,34.1,9.2,50.5,7.6  c14.8-1.4,16.9-2.3,33.2-6.5c16.2-4.2,47.6-4.1,47.6-4.1s3-7.8,2.5-16.9s-5.8-17.1-5.8-17.1s-27.2,18.4-51.5,20.5  c-23.2,2-44.1,0.5-68.6-14.3C71.7,20.3,62.4,4.3,62.4,4.3z"></path>	<path fill="#FFFFFF" d="M105.7,111.2c-1,4.7-5.2,8.3-10.3,8.3c-5.8,0-10.5-4.7-10.5-10.5c0-4.2,2.4-7.7,5.9-9.4  c-3.3-1.2-6.9-1.9-10.6-1.9c-17,0-30.8,13.8-30.8,30.8c0,17,13.8,30.8,30.8,30.8c17,0,30.8-13.8,30.8-30.8  C111,122.1,109,116.1,105.7,111.2z"></path>	<path fill="#FFFFFF" d="M227.1,111.2c-1,4.7-5.2,8.3-10.3,8.3c-5.8,0-10.5-4.7-10.5-10.5c0-4.2,2.4-7.7,5.9-9.4  c-3.3-1.2-6.9-1.9-10.6-1.9c-17,0-30.8,13.8-30.8,30.8c0,17,13.8,30.8,30.8,30.8c17,0,30.8-13.8,30.8-30.8  C232.4,122.1,230.4,116.1,227.1,111.2z"></path></g></svg>